<?xml version="1.0" encoding="UTF-8"?>
<svg width="64" height="64" version="1" xmlns="http://www.w3.org/2000/svg">
 <path d="m4.0508 32.001c-0.0118 0.33399-0.050799 0.66198-0.050799 0.99997 4e-7 15.512 12.488 27.999 27.999 27.999s27.999-12.488 27.999-27.999c0-0.33799-0.04-0.66598-0.05-0.99997-0.52798 15.042-12.776 26.999-27.949 26.999-15.174 0-27.421-11.958-27.949-26.999z" opacity=".2"/>
 <path d="m59.998 32.001c0-15.512-12.488-27.999-27.999-27.999s-27.999 12.488-27.999 27.999c0 15.512 12.488 27.999 27.999 27.999s27.999-12.488 27.999-27.999z" fill="#4f4f4f"/>
 <path d="m32 4.002c-15.512 0-28 12.486-28 27.998 0 0.11355 0.011285 0.22404 0.017578 0.33594 0.35153-15.201 12.694-27.336 27.982-27.336s27.631 12.135 27.982 27.336c0.006271-0.11182 0.017578-0.22249 0.017578-0.33594 0-15.512-12.488-27.998-28-27.998z" fill="#fff" opacity=".1"/>
 <path d="m46.82 19.006c-0.85214-0.0398-3.2532 0.2448-7.0059 2.8555-2.0994-0.63304-4.4958-0.86737-6.9941-0.86133-2.2854 0.0055-4.6554 0.19277-6.959 0.86133-3.7539-2.6105-5.6724-2.8937-6.5254-2.8535-0.28439 0.013401-0.42188 0.056641-0.42188 0.056641-1.4271 3.7021-0.5242 6.4409-0.25391 7.1211-1.6765 1.8792-2.6602 4.2789-2.6602 7.2148 0 10.307 6.6786 12.616 12.498 13.295-0.74814 0.67208-1.2189 2.0617-1.457 3.7988-1.4931 0.68858-5.4982 2.3738-7.8359-1.7363 0 0-1.383-2.5836-4.0137-2.7734 0 0-2.5574-0.03303-0.17773 1.6348 0 0 1.7179 0.82775 2.9102 3.9355 0 0 1.7706 4.7304 9.0605 3.1055 0.006061 1.0478 0.010491 3.0073 0.015625 4.8906 1.6222 0.29023 3.2918 0.44922 5 0.44922 2.7826 0 5.4647-0.40718 7.998-1.1562 0.006604-2.5222 0.013672-5.313 0.013672-7.1875 0-2.5083-1.037-4.1499-1.9766-4.9805 5.837-0.66546 11.965-2.9417 11.965-13.275 0-2.9359-0.81648-5.3377-2.4961-7.2168 0.26869-0.68034 1.1705-3.417-0.25976-7.1191 0 0-0.13782-0.045334-0.42188-0.058594h-0.001954z" opacity=".2"/>
 <path d="m46.82 18.006c-0.85214-0.0398-3.2532 0.2448-7.0059 2.8555-2.0994-0.63304-4.4958-0.86737-6.9941-0.86133-2.2854 0.0055-4.6554 0.19277-6.959 0.86133-3.7539-2.6105-5.6724-2.8937-6.5254-2.8535-0.28439 0.013401-0.42188 0.056641-0.42188 0.056641-1.4271 3.7021-0.5242 6.4409-0.25391 7.1211-1.6765 1.8792-2.6602 4.2789-2.6602 7.2148 0 10.307 6.6786 12.616 12.498 13.295-0.74814 0.67208-1.2189 2.0617-1.457 3.7988-1.4931 0.68858-5.4982 2.3738-7.8359-1.7363 0 0-1.383-2.5836-4.0137-2.7734 0 0-2.5574-0.033026-0.17773 1.6348 0 0 1.7179 0.82775 2.9102 3.9355 0 0 1.7706 4.7304 9.0605 3.1055 0.007272 1.2621 0.013327 3.6146 0.019531 5.8906 1.621 0.28979 3.2893 0.44922 4.9961 0.44922 2.7819 0 5.4633-0.40752 7.9961-1.1562 0.007525-2.775 0.015625-6.0522 0.015625-8.1875 0-2.5083-1.037-4.1499-1.9766-4.9805 5.837-0.66546 11.965-2.9417 11.965-13.275 0-2.9359-0.81648-5.3377-2.4961-7.2168 0.26869-0.68034 1.1705-3.417-0.25976-7.1191 0 0-0.13782-0.045334-0.42188-0.058594h-0.001954z" fill="#fff"/>
</svg>
