<?xml version="1.0" encoding="UTF-8"?>
<svg id="svg46" width="86px" height="86px" enable-background="new 0 0 86 86" version="1.1" viewBox="0 0 86 86" xml:space="preserve" xmlns="http://www.w3.org/2000/svg" xmlns:cc="http://creativecommons.org/ns#" xmlns:dc="http://purl.org/dc/elements/1.1/" xmlns:rdf="http://www.w3.org/1999/02/22-rdf-syntax-ns#"><metadata id="metadata52"><rdf:RDF><cc:Work rdf:about=""><dc:format>image/svg+xml</dc:format><dc:type rdf:resource="http://purl.org/dc/dcmitype/StillImage"/><dc:title/></cc:Work></rdf:RDF></metadata>


<g id="g944" transform="matrix(3.9875 0 0 3.9875 114.1 -10.118)" fill="#fff"><path id="_Path_" class="cls-2" d="m-12.356 9.416-0.05 0.29c-0.66 3.37-2.9 4.53-5.77 4.53h-1.46a0.71 0.71 0 0 0-0.7 0.6l-0.75 4.74-0.21 1.34a0.37 0.37 0 0 0 0.37 0.43h2.59a0.62 0.62 0 0 0 0.62-0.52v-0.13l0.48-3.09v-0.17a0.62 0.62 0 0 1 0.62-0.53h0.39c2.51 0 4.47-1 5-4a3.38 3.38 0 0 0-0.52-3 2.47 2.47 0 0 0-0.61-0.49z" opacity=".3" data-name="&lt;Path&gt;"/><path id="_Path_2" class="cls-3" d="m-13.046 9.146-0.31-0.08-0.33-0.06a8.1 8.1 0 0 0-1.28-0.09h-3.9a0.62 0.62 0 0 0-0.61 0.53l-0.83 5.25v0.15a0.71 0.71 0 0 1 0.7-0.6h1.46c2.87 0 5.11-1.16 5.77-4.53 0-0.1 0-0.2 0.05-0.29a3.49 3.49 0 0 0-0.54-0.23z" opacity=".5" data-name="&lt;Path&gt;"/><path id="_Path_3" class="cls-4" d="m-19.486 9.436a0.62 0.62 0 0 1 0.61-0.53h3.9a8.1 8.1 0 0 1 1.29 0.09l0.33 0.06 0.31 0.08h0.15a3.54 3.54 0 0 1 0.54 0.23 3.18 3.18 0 0 0-0.67-2.86c-0.74-0.84-2.08-1.21-3.79-1.21h-5a0.71 0.71 0 0 0-0.7 0.6l-2.06 13.19a0.43 0.43 0 0 0 0.42 0.49h3.07l0.77-4.89z" data-name="&lt;Path&gt;"/></g></svg>
