<?xml version="1.0" encoding="UTF-8"?>
<svg id="svg56" width="256" height="352" enable-background="new 0 0 86 86" version="1.1" viewBox="0 0 256 352" xml:space="preserve" xmlns="http://www.w3.org/2000/svg" xmlns:cc="http://creativecommons.org/ns#" xmlns:dc="http://purl.org/dc/elements/1.1/" xmlns:rdf="http://www.w3.org/1999/02/22-rdf-syntax-ns#"><metadata id="metadata62"><rdf:RDF><cc:Work rdf:about=""><dc:format>image/svg+xml</dc:format><dc:type rdf:resource="http://purl.org/dc/dcmitype/StillImage"/><dc:title/></cc:Work></rdf:RDF></metadata>


<path id="path841" d="m318.81-81.193-1.1934 1.1934h2.3867l-1.1934-1.1934zm-81.193 81.193-21.309 21.309a48 48 0 0 0-21.941-5.3086 48 48 0 0 0-48 48 48 48 0 0 0 5.3086 21.941l-64.193 64.193a48 48 0 0 0-23.479-6.1348 48 48 0 0 0-48 48 48 48 0 0 0 48 48 48 48 0 0 0 48-48 48 48 0 0 0-6.1348-23.479l63.527-63.527a48 48 0 0 0 10.607 4.8066v131.72a48 48 0 0 0-36 46.475 48 48 0 0 0 48 48 48 48 0 0 0 48-48 48 48 0 0 0-36-46.475v-130.5a48 48 0 0 0 38.363-47.021 48 48 0 0 0-7.0078-24.969l20.645-20.645v-18.387h-18.387z" color="#000000" color-rendering="auto" dominant-baseline="auto" enable-background="accumulate" fill="#fff" image-rendering="auto" shape-rendering="auto" solid-color="#000000" stop-color="#000000" style="font-feature-settings:normal;font-variant-alternates:normal;font-variant-caps:normal;font-variant-east-asian:normal;font-variant-ligatures:normal;font-variant-numeric:normal;font-variant-position:normal;font-variation-settings:normal;inline-size:0;isolation:auto;mix-blend-mode:normal;shape-margin:0;shape-padding:0;text-decoration-color:#000000;text-decoration-line:none;text-decoration-style:solid;text-indent:0;text-orientation:mixed;text-transform:none;white-space:normal"/></svg>
