<svg version="1.1" viewBox="0 0 72 72" xmlns="http://www.w3.org/2000/svg">
<g fill="#fdd835">
<path d="m36.2 13.316c-12.572 0-22.8 10.228-22.8 22.8s10.228 22.8 22.8 22.8 22.8-10.228 22.8-22.8-10.228-22.8-22.8-22.8z" fill="#fdd835"/>
</g>
<circle cx="36" cy="36" r="23" fill="none" stroke="#f57f17" stroke-miterlimit="10" stroke-width="2"/>
<path d="m44.7 43.92c-6.328-1.736-11.41-0.906-17.4 1.902" fill="none" stroke="#000" stroke-linecap="round" stroke-linejoin="round" stroke-width="2"/>
<path d="m30 31c0 1.6568-1.3448 3-3 3-1.6553 0-3-1.3433-3-3 0-1.6552 1.3447-3 3-3 1.6552 0 3 1.3448 3 3"/>
<path d="m48 31c0 1.6568-1.3447 3-3 3s-3-1.3433-3-3c0-1.6552 1.3447-3 3-3s3 1.3448 3 3"/>
</svg>
