<svg version="1.1" viewBox="0 0 72 72" xmlns="http://www.w3.org/2000/svg">
<polygon points="51.319 45.319 29.789 54.28 8.2597 63.24 17.22 41.711 26.181 20.181 38.75 32.75" fill="#f9a825"/>
<polygon points="16.391 42.539 7.0905 64.41 40 35 25.692 20.669" fill="#fdd835"/>
<polygon points="20.755 58.598 12.958 50.801 15.224 45.285 26.286 56.347" fill="#ef5350"/>
<polygon points="26.286 56.347 21.485 51.546 17.343 55.248 20.755 58.598" fill="#d32f2f"/>
<polygon points="39.2 50.558 32.927 53.422 24.756 45.25 18.15 38.645 20.804 32.162 27.501 38.859" fill="#ef5350"/>
<polygon points="39.2 50.558 31.362 42.72 26.537 47.031 32.927 53.422" fill="#d32f2f"/>
<ellipse cx="30.295" cy="14.458" rx="2" ry="1.9708" fill="#d500f9"/>
<path d="m23 37" fill="#ea5a47"/>
<ellipse cx="60.295" cy="18.458" rx="2" ry="1.9708" fill="#fdd835"/>
<ellipse cx="57.295" cy="39.458" rx="2" ry="1.9708" fill="#e53935"/>
<g fill="none" stroke-linecap="round" stroke-linejoin="round" stroke-miterlimit="10" stroke-width="2">
<polyline points="50.663 45.64 50.831 45.808 28.961 55.109 7.0904 64.41 16.391 42.539 25.692 20.669" stroke="#f57f17"/>
<polyline points="25.801 20.778 38.262 33.238 50.663 45.64" stroke="#f57f17"/>
<g stroke="#f29312">
<path d="m46.49 7.3671c0.2347 0.4487 0.4027 0.943 0.4897 1.473 0.451 2.7473-1.447 5.4141-4.2392 5.9565"/>
<path d="m42.933 14.776c-0.5049 0.0384-1.0133 0.1573-1.509 0.364-2.5697 1.0713-3.828 4.093-2.8105 6.7492"/>
<path d="m61.793 26.717c-0.0987 0.4967-0.2778 0.987-0.5425 1.4544-1.372 2.4225-4.5229 3.309-7.0378 1.98"/>
<path d="m54.374 30.256c-0.4173-0.2868-0.8878-0.513-1.4036-0.663-2.6733-0.7775-5.5486 0.7867-6.4223 3.4936"/>
</g>
</g>
</svg>
