<svg version="1.1" viewBox="0 0 72 72" xmlns="http://www.w3.org/2000/svg">
<circle cx="36" cy="36" r="23" fill="#fdd835"/>
<path d="m50.595 41.64a11.555 11.555 0 0 1-0.87 4.49c-12.49 3.03-25.43 0.34-27.49-0.13a11.435 11.435 0 0 1-0.83-4.36h0.11s14.8 3.59 28.89 0.07z" fill="#fff"/>
<path d="m49.725 46.13c-1.79 4.27-6.35 7.23-13.69 7.23-7.41 0-12.03-3.03-13.8-7.36 2.06 0.47 15 3.16 27.49 0.13z" fill="#d32f2f"/>
<g fill="none" stroke-linecap="round" stroke-linejoin="round" stroke-width="2">
<polyline points="25.168 27.413 31.755 31.427 25.168 35.165" stroke="#000"/>
<polyline points="46.832 27.413 40.245 31.427 46.832 35.165" stroke="#000"/>
<circle cx="36" cy="36" r="23" stroke="#f57f17"/>
<path d="m50.595 41.64a11.555 11.555 0 0 1-0.87 4.49c-12.49 3.03-25.43 0.34-27.49-0.13a11.435 11.435 0 0 1-0.83-4.36h0.11s14.8 3.59 28.89 0.07z" stroke="#000"/>
<path d="m49.725 46.13c-1.79 4.27-6.35 7.23-13.69 7.23-7.41 0-12.03-3.03-13.8-7.36 2.06 0.47 15 3.16 27.49 0.13z" stroke="#000"/>
</g>
</svg>
