<svg version="1.1" viewBox="0 0 72 72" xmlns="http://www.w3.org/2000/svg">
<path d="m16.12 48.114c-3.1584 3.1634-4.6518 7.5601-3.97 11.688 4.128 0.6763 8.5223-0.8196 11.683-3.977 3.1584-3.1634 4.6518-7.5601 3.97-11.688-4.128-0.6763-8.5223 0.8196-11.683 3.977z" fill="#ffee58"/>
<path d="m31.973 45.839c-0.1919 0.966-0.6657 1.8536-1.3616 2.5507-0.3389 0.3373-0.7246 0.6241-1.1452 0.8516 2.1626 2.9716 3.7579 6.2847 4.6952 9.7506 0.7092-0.6216 1.3906-1.2786 2.0417-1.9685 1.9136-2.0343 3.5491-4.3376 4.8516-6.8326 1.2507-2.4201 2.1751-4.9922 2.7442-7.6354-3.7285 1.9544-7.7719 3.0771-11.826 3.2837z" fill="#61b2e4"/>
<path d="m14.923 35.749c-0.69 0.65-1.3472 1.3303-1.9691 2.0383 3.4682 0.9313 6.7846 2.521 9.7604 4.6784 0.2264-0.414 0.5104-0.7939 0.8435-1.1281 0.6949-0.6935 1.5791-1.1665 2.5417-1.3598 0.2106-4.0507 1.3364-8.0899 3.293-11.814 0.0019-0.0037 0.0037-0.0074 0.0056-0.0112-2.645 0.5687-5.2188 1.4928-7.6405 2.7434-2.496 1.303-4.7999 2.9389-6.8346 4.853z" fill="#42a5f5" stroke="#0d47a1"/>
<path d="m34.821 20.747c-5.2314 5.2507-8.3665 12.164-8.7228 19.233 1.6376-0.3318 3.3326 0.1781 4.515 1.3584 1.186 1.1868 1.6956 2.8903 1.356 4.5332 7.0754-0.3609 13.992-3.5024 19.242-8.7398 6.7117-6.7229 9.8843-16.067 8.4337-24.839-1.7318-0.2827-3.5044-0.3879-5.2915-0.3141-7.1741 0.2926-14.21 3.4508-19.532 8.7677zm10.249-0.5291c1.8412-1.8413 4.8269-1.8418 6.6687-0.0012l0.0012 0.0012c1.8418 1.8407 1.8424 4.8255 0.0012 6.6667l-0.0012 0.0012c-1.8419 1.8404-4.8274 1.8398-6.6685-0.0014-1.8417-1.8406-1.8424-4.8252-0.0014-6.6665z" fill="#ef5350"/>
<path d="m26.538 52.037c-0.8756 0.9831-1.8894 1.8467-3.0072 2.5617-3.4907 2.2228-7.7244 2.8345-11.441 1.653-0.1495 1.1964-0.1293 2.3916 0.06 3.5496 4.128 0.6763 8.5223-0.8195 11.683-3.9769 1.1048-1.1131 2.0209-2.3956 2.7055-3.7874z" fill="#fbc02d"/>
<path d="m26.204 38.687c-0.033 0.4281-0.0559 0.8558-0.0684 1.283 1.6271-0.316 3.305 0.1967 4.4773 1.3682 1.186 1.1868 1.6956 2.8903 1.356 4.5332 7.075-0.3618 13.991-3.5038 19.24-8.7412 1.4932-1.5067 2.8266-3.1619 3.9746-4.9339-1.3472 1.2267-2.8051 2.3344-4.353 3.3074-7.5574 4.7109-16.694 5.8918-24.627 3.1832z" fill="#d32f2f"/>
<polygon points=""/>
<path d="m24.039 48.551c0.8703-0.4372 1.7206-0.9178 2.5501-1.438 2.4433-1.5323 4.6776-3.4046 6.6294-5.5552l0.0028-0.0028c1.8803-2.0911 3.4745-4.4187 4.7329-6.9122 0.061-0.1204 0.0967-0.252 0.1047-0.3867-3.3985-0.7533-14.846 10.251-14.02 14.295z" fill="#61b2e4"/>
<path d="m48.405 29.49c-3.2761 0-5.941-2.6641-5.941-5.9392s2.6649-5.9392 5.941-5.9392 5.941 2.6641 5.941 5.9392-2.6649 5.9392-5.941 5.9392zm0-9.8987c-2.1839 0-3.9607 1.7757-3.9607 3.9595 0 2.1837 1.7768 3.9595 3.9607 3.9595 2.1838 0 3.9607-1.7758 3.9607-3.9595 0-2.1838-1.7769-3.9595-3.9607-3.9595z" fill="#b71c1c"/>
<g stroke-linecap="round" stroke-linejoin="round" stroke-miterlimit="10" stroke-width="1.949">
<path d="m20.653 45.063c-1.678 0.7083-3.2222 1.7475-4.5331 3.0508-3.1581 3.1631-4.6517 7.5594-3.9703 11.687 4.128 0.6762 8.5221-0.8196 11.683-3.9769 1.3043-1.3104 2.3446-2.8541 3.0537-4.5318" fill="none" stroke="#f57f17"/>
<path d="m14.923 35.749c-0.69 0.65-1.3472 1.3303-1.9691 2.0383 3.4682 0.9313 6.7846 2.521 9.7604 4.6784 0.2264-0.414 0.5104-0.7939 0.8435-1.1281 0.6949-0.6935 1.5791-1.1665 2.5417-1.3598 0.2106-4.0507 1.3364-8.0899 3.293-11.814 0.0019-0.0037 0.0037-0.0074 0.0056-0.0112-2.645 0.5687-5.2188 1.4928-7.6405 2.7434-2.496 1.303-4.7999 2.9389-6.8346 4.853z" fill="none" stroke="#0d47a1"/>
<path d="m31.973 45.839c-0.1919 0.966-0.6657 1.8536-1.3616 2.5507-0.3389 0.3373-0.7246 0.6241-1.1452 0.8516 2.1626 2.9716 3.7579 6.2847 4.6952 9.7506 0.7092-0.6216 1.3906-1.2786 2.0417-1.9685 1.9136-2.0343 3.5491-4.3376 4.8516-6.8326 1.2507-2.4201 2.1751-4.9922 2.7442-7.6354-3.7285 1.9544-7.7719 3.0771-11.826 3.2837z" fill="#42a5f5" stroke="#0d47a1"/>
<path d="m31.83 43.345c0.2696 0.8863 0.2506 1.6919 0.1371 2.5245 7.0759-0.3611 13.993-3.5031 19.243-8.7412 6.7106-6.7215 9.8836-16.063 8.4351-24.834-8.7712-1.4365-18.108 1.742-24.823 8.4508-5.2322 5.2509-8.3679 12.164-8.7242 19.234 0.9413-0.1907 1.8984-0.0942 2.7693 0.2387" fill="none" stroke="#b71c1c"/>
<path d="m37.072 34.196h-2e-4c-2.4156 1.2183-4.6724 2.7626-6.6996 4.5844-2.0849 1.8911-3.9 4.0556-5.3844 6.4211-0.5039 0.8031-0.9684 1.6273-1.3917 2.4694" fill="#42a5f5" stroke="#0d47a1"/>
</g>
</svg>
