<svg version="1.1" viewBox="0 0 72 72" xmlns="http://www.w3.org/2000/svg">
<g transform="matrix(1 0 0 -1 0 71.111)" fill="#fdd835">
<polygon points="34.166 11.877 19 29.21 11.667 42.269 13.666 53.543 26.604 60.613 36.229 60.572 50.271 60.78 52.666 59.21 53.416 55.377 52.666 53.793 56.25 53.71 57.583 52.043 58.416 49.71 56.833 46.71 58.416 46.043 60.333 43.377 59.416 40.627 56.916 39.46 58.083 37.293 58.25 33.877 55.666 32.377 42.5 31.877 41.666 31.21 40.812 30.613 31.687 30.613 31.75 28.877 35.666 19.293 37.333 14.71 37.088 11.232" fill="#fdd835"/>
</g>
<g transform="matrix(1 0 0 -1 0 71.111)" fill="none" stroke="#f57f17" stroke-width="2">
<g stroke-linecap="round" stroke-linejoin="round">
<path d="m35.236 59.601h-9c-8.321 0-14-6.681-14-15 0.0204-4.7991 1.7993-9.4241 5-13"/>
<path d="m34.625 31.601h-4.389l7-18c0.811-2.084-2.79-3.8-5-1l-15 19"/>
<path d="m37.448 35.101c0.1527 2.0638 1.9342 3.6226 4 3.5h13c1.933 0.2578 3.709-1.1001 3.9669-3.0331s-1.1001-3.709-3.0331-3.9669c-0.3099-0.0413-0.6238-0.0413-0.9337 0h-13c-2.0659-0.1226-3.8474 1.4362-4.0001 3.5z"/>
<path d="m38.305 56.437c0.1527 2.0638 1.9342 3.6226 4 3.5h7c1.933 0.2578 3.709-1.1001 3.9669-3.0331s-1.1001-3.709-3.0331-3.9669c-0.3099-0.0413-0.6238-0.0413-0.9337 0h-7c-2.0659-0.1226-3.8474 1.4362-4.0001 3.5z"/>
<path d="m33.236 42.437c0.1527 2.0638 1.9342 3.6226 4 3.5h19c1.933 0.2578 3.709-1.1001 3.9669-3.0331s-1.1001-3.709-3.0331-3.9669c-0.3099-0.0413-0.6238-0.0413-0.9337 0h-19c-2.0659-0.1226-3.8474 1.4362-4.0001 3.5z"/>
<path d="m35.236 49.437c0.1527 2.0638 1.9342 3.6226 4 3.5h15c1.933 0.2578 3.709-1.1001 3.9669-3.0331s-1.1001-3.709-3.0331-3.9669c-0.3099-0.0413-0.6238-0.0413-0.9337 0h-15c-2.0659-0.1226-3.8474 1.4362-4.0001 3.5z"/>
</g>
<path d="m14.136 36.263c-1.176 2.4511-1.8253 5.1215-1.906 7.839 0 8.56 4.625 15.5 15.125 15.5" stroke-miterlimit="10"/>
</g>
</svg>
