<svg enable-background="new 0 0 86 86" version="1.1" viewBox="0 0 64 64" xml:space="preserve" xmlns="http://www.w3.org/2000/svg">


<g transform="translate(0,4)" fill="none" stroke="#fff" stroke-width="2"><path d="m24 24h16"/><path d="m32 16v16"/></g><path d="m24 44h16" fill="none" stroke="#fff" stroke-width="2"/><path d="m17 8.1914c-2.7527 5.59e-5 -5 2.2473-5 5v37.617c0 2.7527 2.2473 5 5 5h30c2.7527 0 5-2.2473 5-5v-25.809l-15-16.809zm0 2 20-4.06e-4 13 14.809v25.809c0 1.6793-1.3207 3-3 3h-30c-1.6793 0-3-1.3207-3-3v-37.617c0-1.6793 1.3207-3 3-3z" color="#000000" color-rendering="auto" dominant-baseline="auto" enable-background="accumulate" fill="#fff" image-rendering="auto" opacity=".5" shape-rendering="auto" solid-color="#000000" stop-color="#000000" style="font-feature-settings:normal;font-variant-alternates:normal;font-variant-caps:normal;font-variant-east-asian:normal;font-variant-ligatures:normal;font-variant-numeric:normal;font-variant-position:normal;font-variation-settings:normal;inline-size:0;isolation:auto;mix-blend-mode:normal;shape-margin:0;shape-padding:0;text-decoration-color:#000000;text-decoration-line:none;text-decoration-style:solid;text-indent:0;text-orientation:mixed;text-transform:none;white-space:normal"/><path d="m52 25h-11c-2.216 0-4-1.784-4-4v-12.809z" fill="#fff"/></svg>
